<svg width="27" height="23" viewBox="0 0 27 23" fill="none" xmlns="http://www.w3.org/2000/svg">
<path id="Vector" d="M2.424 23C1.733 23 1.1565 22.747 0.6945 22.241C0.2325 21.735 0.001 21.103 0 20.3451V2.65486C0 1.89805 0.2315 1.26664 0.6945 0.760642C1.1575 0.254643 1.7335 0.00109524 2.4225 0H24.5775C25.2675 0 25.8435 0.253547 26.3055 0.760642C26.7675 1.26774 26.999 1.89914 27 2.65486V20.3468C27 21.1025 26.7685 21.7339 26.3055 22.241C25.8425 22.7481 25.2665 23.0011 24.5775 23H2.424ZM25.5 3.09679L14.172 11.2191C14.066 11.2793 13.959 11.3302 13.851 11.3719C13.742 11.4124 13.625 11.4326 13.5 11.4326C13.375 11.4326 13.258 11.4124 13.149 11.3719C13.04 11.3313 12.933 11.2804 12.828 11.2191L1.5 3.09514V20.3451C1.5 20.6409 1.5865 20.8834 1.7595 21.0729C1.9325 21.2624 2.154 21.3571 2.424 21.3571H24.5775C24.8465 21.3571 25.0675 21.2624 25.2405 21.0729C25.4135 20.8834 25.5 20.6409 25.5 20.3451V3.09679ZM13.5 9.85714L25.038 1.64286H1.962L13.5 9.85714ZM1.5 3.44343V2.11107V2.16693V1.64286V2.16857V2.08314V3.44343Z" fill="black"/>
</svg>
