<svg width="26" height="26" viewBox="0 0 26 26" fill="none" xmlns="http://www.w3.org/2000/svg">
<g id="simple-line-icons:call-in" clip-path="url(#clip0_587_532)">
<path id="Vector" d="M25.3996 19.5921C25.0019 19.3126 20.6501 16.4189 20.1167 16.0931C19.8843 15.9509 19.6008 15.8814 19.2924 15.8814C18.8947 15.8814 18.4543 15.9972 18.0246 16.2235C17.6057 16.4441 16.337 17.166 15.7162 17.5206C15.1694 17.1367 13.8849 16.1528 11.8609 14.1268C9.84958 12.1163 8.85671 10.8212 8.47036 10.2715C8.82421 9.65117 9.5453 8.38245 9.76468 7.96483C10.1803 7.17752 10.2274 6.39142 9.89021 5.86127C9.57376 5.36158 6.6918 0.99114 6.39443 0.580016C6.11452 0.192047 5.61199 -0.0175781 5.06683 -0.0175781C4.63661 -0.0175781 4.18039 0.112422 3.7847 0.387859C3.74652 0.415078 -0.0771354 3.18733 -0.0263541 4.76398C0.11464 9.19292 4.41843 14.3978 8.00396 17.9846C11.5895 21.5714 16.7948 25.8764 21.2412 26.0181H21.2778C22.8345 26.0181 25.5711 22.2429 25.5975 22.2055C26.3153 21.1797 26.0537 20.0503 25.3996 19.5921ZM24.2771 21.259C23.2465 22.6865 21.7832 24.1775 21.2104 24.3908C18.1627 24.2478 13.8861 21.5694 9.15286 16.8354C4.42005 12.1009 1.74205 7.82922 1.60068 4.79169C1.80624 4.21725 3.29715 2.74459 4.71171 1.72165C4.81653 1.64934 4.94571 1.6075 5.06637 1.6075C5.09316 1.6075 5.1155 1.60994 5.133 1.61319C5.59003 2.2774 8.04337 5.99137 8.48862 6.68562C8.49025 6.75875 8.46549 6.94435 8.32612 7.20925C8.17784 7.4916 7.71593 8.31466 7.05903 9.46597L6.54796 10.3618L7.14068 11.2059C7.58268 11.8336 8.63406 13.1982 10.7112 15.2758C12.7973 17.3627 14.157 18.4108 14.7822 18.8503L15.6264 19.4431L16.5222 18.9312C17.3904 18.4351 18.4393 17.8408 18.7806 17.6617C19.0544 17.5174 19.2417 17.506 19.2925 17.506C19.3006 17.506 19.3075 17.506 19.3132 17.5069C19.9351 17.8973 23.7295 20.4164 24.3994 20.8759C24.4104 20.9409 24.4002 21.0823 24.2771 21.259ZM16.3475 9.56025C16.4523 9.66628 16.5999 9.73092 16.7636 9.72645L17.061 9.71952C17.0666 9.71952 17.0707 9.71711 17.0772 9.71673L22.9044 9.7423C23.2323 9.73458 23.5041 9.4632 23.5118 9.13452L23.5122 8.71771C23.4626 8.33096 23.1583 8.10427 22.8301 8.11159L18.9833 8.10143L25.6344 1.45924C25.9517 1.14196 25.9517 0.627217 25.6344 0.309936C25.3171 -0.00693946 24.8028 -0.00693946 24.4855 0.309936L17.8161 6.9704L17.8385 3.0391C17.8458 2.71087 17.5854 2.42487 17.2571 2.43259L16.8403 2.43297C16.5113 2.4411 16.2395 2.63653 16.2326 2.96478L16.2159 8.83022C16.2159 8.83588 16.2382 8.83994 16.2382 8.84563L16.2057 9.143C16.2025 9.30794 16.2411 9.4546 16.3475 9.56025Z" fill="black"/>
</g>
<defs>
<clipPath id="clip0_587_532">
<rect width="26" height="26" fill="white"/>
</clipPath>
</defs>
</svg>
